<svg xmlns="http://www.w3.org/2000/svg" xmlns:xlink="http://www.w3.org/1999/xlink" width="500" zoomAndPan="magnify" viewBox="0 0 375 374.999991" height="500" preserveAspectRatio="xMidYMid meet" version="1.0"><defs><clipPath id="012d15662e"><path d="M 187.5 0 C 83.945312 0 0 83.945312 0 187.5 C 0 291.054688 83.945312 375 187.5 375 C 291.054688 375 375 291.054688 375 187.5 C 375 83.945312 291.054688 0 187.5 0 Z M 187.5 0 " clip-rule="nonzero"/></clipPath><clipPath id="143474675a"><path d="M 99.597656 153 L 188 153 L 188 254 L 99.597656 254 Z M 99.597656 153 " clip-rule="nonzero"/></clipPath><clipPath id="adec7950df"><path d="M 153 87.039062 L 275.097656 87.039062 L 275.097656 206 L 153 206 Z M 153 87.039062 " clip-rule="nonzero"/></clipPath></defs><g clip-path="url(#012d15662e)"><rect x="-37.5" width="450" fill="#7643a0" y="-37.499999" height="449.999989" fill-opacity="1"/></g><path fill="#ffffff" d="M 212.394531 188.359375 C 210.515625 187.265625 208.324219 187.265625 206.601562 188.359375 L 168.390625 209.503906 C 166.667969 210.597656 165.570312 212.476562 165.570312 214.511719 L 165.570312 259.457031 C 165.570312 261.492188 166.667969 263.527344 168.390625 264.46875 C 168.390625 264.46875 206.441406 286.863281 206.441406 286.863281 C 208.164062 287.957031 210.515625 287.957031 212.394531 286.863281 L 250.449219 264.46875 C 252.171875 263.371094 253.265625 261.492188 253.265625 259.457031 L 253.265625 214.511719 C 253.265625 212.476562 252.171875 210.441406 250.292969 209.34375 Z M 209.417969 194 L 243.871094 213.105469 L 229.933594 221.246094 L 195.480469 201.671875 Z M 209.730469 233.148438 C 209.574219 233.304688 209.261719 233.304688 209.105469 233.148438 L 174.183594 213.417969 L 189.0625 205.117188 L 223.824219 224.691406 Z M 247.003906 259.300781 L 212.550781 279.660156 L 212.550781 238.628906 C 212.707031 238.628906 226.644531 230.328125 226.644531 230.328125 L 226.644531 236.125 C 226.644531 237.847656 228.054688 239.257812 229.777344 239.257812 C 231.5 239.257812 232.910156 237.847656 232.910156 236.125 L 232.910156 226.726562 L 247.003906 218.429688 Z M 247.003906 259.300781 " fill-opacity="1" fill-rule="nonzero"/><g clip-path="url(#143474675a)"><path fill="#ffffff" d="M 140.828125 153.910156 L 102.617188 175.050781 C 100.894531 175.988281 99.796875 178.027344 99.796875 180.0625 L 99.796875 225.003906 C 99.796875 227.042969 100.894531 229.078125 102.617188 230.015625 C 102.617188 230.015625 140.671875 252.410156 140.671875 252.410156 C 142.394531 253.507812 144.742188 253.507812 146.621094 252.410156 L 159.308594 244.894531 L 159.308594 237.691406 L 146.777344 245.050781 L 146.777344 204.179688 C 146.933594 204.179688 146.933594 204.019531 147.09375 204.019531 L 160.871094 196.347656 L 160.871094 200.105469 C 160.871094 201.828125 162.28125 203.238281 164.003906 203.238281 C 165.726562 203.238281 167.136719 201.828125 167.136719 200.105469 L 167.136719 192.746094 L 181.230469 184.914062 L 181.230469 195.25 L 187.496094 191.804688 L 187.496094 180.21875 C 187.496094 178.183594 186.398438 176.144531 184.519531 175.050781 L 146.621094 153.910156 C 144.742188 152.8125 142.550781 152.8125 140.828125 153.910156 Z M 143.960938 198.695312 C 143.804688 198.851562 143.488281 198.851562 143.332031 198.695312 L 109.195312 178.496094 L 123.132812 170.664062 L 157.898438 190.710938 Z M 164.316406 187.265625 L 129.550781 167.21875 L 143.648438 159.390625 L 178.882812 178.964844 Z M 164.316406 187.265625 " fill-opacity="1" fill-rule="nonzero"/></g><g clip-path="url(#adec7950df)"><path fill="#ffffff" d="M 253.578125 204.019531 C 253.894531 204.179688 254.050781 204.335938 254.363281 204.648438 C 254.519531 204.804688 254.675781 204.804688 254.832031 204.960938 C 254.832031 204.960938 254.988281 204.960938 254.988281 205.117188 L 271.746094 195.09375 C 273.9375 193.84375 275.191406 191.492188 275.191406 188.988281 L 275.191406 124.625 C 275.191406 122.121094 273.9375 119.769531 271.589844 118.515625 L 217.71875 88.292969 C 215.527344 87.039062 212.863281 87.039062 210.671875 88.292969 L 156.488281 118.515625 C 154.296875 119.769531 153.042969 122.121094 153.042969 124.625 L 153.042969 150.308594 C 162.28125 155.476562 187.652344 169.570312 187.652344 169.570312 C 191.410156 171.761719 193.757812 175.832031 193.757812 180.0625 L 193.757812 188.203125 C 199.238281 185.074219 203.46875 182.878906 203.46875 182.878906 C 205.191406 181.785156 207.382812 181.3125 209.417969 181.3125 C 211.609375 181.3125 213.648438 181.941406 215.527344 182.878906 C 215.527344 182.878906 216.152344 183.191406 217.25 183.820312 L 217.25 158.292969 C 217.71875 158.136719 218.03125 157.980469 218.5 157.667969 L 240.738281 144.511719 L 240.738281 153.125 C 240.738281 154.847656 242.148438 156.257812 243.871094 156.257812 C 245.59375 156.257812 247.003906 154.847656 247.003906 153.125 L 247.003906 140.753906 L 268.925781 127.757812 L 268.925781 188.988281 C 268.925781 189.300781 268.769531 189.613281 268.457031 189.769531 L 248.726562 201.515625 L 253.265625 204.019531 C 253.421875 204.019531 253.421875 204.019531 253.578125 204.019531 Z M 215.214844 152.34375 C 214.585938 152.8125 213.648438 152.8125 212.863281 152.34375 L 161.1875 123.058594 L 184.519531 110.0625 L 236.824219 139.660156 Z M 242.929688 135.898438 L 190.941406 106.460938 C 190.941406 106.460938 213.804688 93.617188 213.804688 93.617188 C 214.117188 93.460938 214.273438 93.460938 214.585938 93.617188 L 265.792969 122.433594 Z M 242.929688 135.898438 " fill-opacity="1" fill-rule="nonzero"/></g></svg>